<svg preserveAspectRatio="none" overflow="visible" style="display: block;" width="140.741" height="140.741" viewBox="0 0 140.741 140.741" fill="none" xmlns="http://www.w3.org/2000/svg">
<g id="Illustration">
<path id="Polygon" d="M64.2127 3.55509C68.0229 1.35526 72.7173 1.35526 76.5275 3.55509L125.155 31.6303C128.965 33.8301 131.313 37.8956 131.313 42.2953V98.4457C131.313 102.845 128.965 106.911 125.155 109.111L76.5275 137.186C72.7173 139.386 68.0229 139.386 64.2127 137.186L15.585 109.111C11.7747 106.911 9.42755 102.845 9.42755 98.4457V42.2953C9.42755 37.8956 11.7747 33.8301 15.585 31.6303L64.2127 3.55509Z" fill="#F0F1F2"/>
<rect id="Rectangle 332" x="43.1016" y="46.6205" width="54.537" height="47.5" fill="white" stroke="#9BA0A4" stroke-width="1.75926" stroke-dasharray="14.07 14.07"/>
<g id="Ellipse 5">
</g>
<line id="Line 103" x1="52.7775" y1="61.5742" x2="77.4071" y2="61.5742" stroke="#D1D4D7" stroke-width="3.51852" stroke-linecap="round"/>
<line id="Line 104" x1="52.7775" y1="70.3705" x2="87.9627" y2="70.3705" stroke="#D1D4D7" stroke-width="3.51852" stroke-linecap="round"/>
<line id="Line 106" x1="52.7775" y1="79.1668" x2="66.8516" y2="79.1668" stroke="#D1D4D7" stroke-width="3.51852" stroke-linecap="round"/>
<line id="Line 108" x1="90.6016" y1="94.1205" x2="104.676" y2="94.1205" stroke="#9BA0A4" stroke-width="1.75926" stroke-linecap="round"/>
<line id="Line 107" x1="97.6386" y1="87.0834" x2="97.6386" y2="101.158" stroke="#9BA0A4" stroke-width="1.75926" stroke-linecap="round"/>
<circle id="Ellipse 3" cx="97.6386" cy="94.1205" r="2.63889" fill="white" stroke="#9BA0A4" stroke-width="1.25317" stroke-miterlimit="1.22077" stroke-linejoin="round"/>
</g>
</svg>
